<?xml version="1.0" encoding="utf-8"?>
<!-- Generator: Adobe Illustrator 19.0.0, SVG Export Plug-In . SVG Version: 6.00 Build 0)  -->
<svg version="1.1" id="Layer_1" xmlns="http://www.w3.org/2000/svg" xmlns:xlink="http://www.w3.org/1999/xlink" x="0px" y="0px"
	 viewBox="0 0 1223 400" style="enable-background:new 0 0 1223 400;" xml:space="preserve">
<style type="text/css">
	.st0{fill:#7DD5FF;}
	.st1{fill:#6DB9DE;}
	.st2{fill:#72C1E8;}
	.st3{fill:#66ADCF;}
	.st4{fill:#F7FFAA;}
	.st5{fill:#E1E889;}
	.st6{fill:#FA7B6C;}
	.st7{fill:none;stroke:#E6E7E8;stroke-miterlimit:10;}
	.st8{fill:none;stroke:#E6E7E8;stroke-linecap:round;stroke-linejoin:round;stroke-miterlimit:10;}
	.st9{fill:none;stroke:#BBBDBF;stroke-miterlimit:10;}
	.st10{fill:#E5E5E4;}
	.st11{fill:#CBCCCC;}
	.st12{fill:#BBBDBF;}
	.st13{fill:#CBCCCC;stroke:#BBBDBF;stroke-miterlimit:10;}
	.st14{fill:#BBBDBF;stroke:#BBBDBF;stroke-miterlimit:10;}
	.st15{fill:#EA937E;}
	.st16{fill:#DE8E7E;}
	.st17{fill:#1BB471;}
	.st18{fill:#AF535B;}
	.st19{fill:#34B880;}
	.st20{fill:#FFFFFF;}
	.st21{fill:#D07B6C;}
	.st22{fill:#109053;}
	.st23{fill:#C9535B;}
	.st24{fill:none;stroke:#D0D2D3;stroke-width:2;stroke-miterlimit:10;}
	.st25{fill:#5B9FE6;}
	.st26{fill:#58595B;}
	.st27{fill:#FFF100;}
	.st28{fill:#556870;}
</style>
<path id="XMLID_302_" class="st0" d="M1166.8,369.5c0.2-3,0.2-5.9,0.2-8.9C1167,193,922,57.1,619.8,57.1S72.7,193,72.7,360.6
	c0,3,0.1,5.9,0.2,8.9H1166.8z"/>
<rect id="XMLID_294_" x="298.2" y="213.3" class="st1" width="164" height="147.1"/>
<rect id="XMLID_307_" x="380.1" y="193.8" class="st1" width="89.5" height="158.5"/>
<rect id="XMLID_372_" x="794.5" y="193.8" class="st1" width="89.5" height="158.5"/>
<rect id="XMLID_308_" x="361" y="230" class="st2" width="120.7" height="111.5"/>
<rect id="XMLID_306_" x="286.7" y="250" class="st3" width="113.6" height="110.4"/>
<rect id="XMLID_371_" x="794.9" y="230" class="st2" width="148.3" height="132.5"/>
<rect id="XMLID_370_" x="773.5" y="268.3" class="st3" width="110.3" height="92.1"/>
<path id="XMLID_202_" class="st4" d="M792.4,166.6H469.2c-3.9,0-7.1,3.2-7.1,7.1v189.2c0,3.9,3.2,7.1,7.1,7.1h323.2
	c3.9,0,7.1-3.2,7.1-7.1V173.7C799.5,169.8,796.3,166.6,792.4,166.6z"/>
<g id="XMLID_266_">
	<path id="XMLID_238_" class="st5" d="M511,320h-28.7c-1.7,0-3.1-1.4-3.1-3.1v-37.8c0-1.7,1.4-3.1,3.1-3.1H511
		c1.7,0,3.1,1.4,3.1,3.1v37.8C514.2,318.6,512.8,320,511,320z"/>
	<path id="XMLID_237_" class="st5" d="M563.5,320h-28.7c-1.7,0-3.1-1.4-3.1-3.1v-37.8c0-1.7,1.4-3.1,3.1-3.1h28.7
		c1.7,0,3.1,1.4,3.1,3.1v37.8C566.6,318.6,565.2,320,563.5,320z"/>
	<path id="XMLID_236_" class="st5" d="M617.2,320h-28.7c-1.7,0-3.1-1.4-3.1-3.1v-37.8c0-1.7,1.4-3.1,3.1-3.1h28.7
		c1.7,0,3.1,1.4,3.1,3.1v37.8C620.4,318.6,619,320,617.2,320z"/>
	<path id="XMLID_235_" class="st5" d="M670.9,320h-28.7c-1.7,0-3.1-1.4-3.1-3.1v-37.8c0-1.7,1.4-3.1,3.1-3.1h28.7
		c1.7,0,3.1,1.4,3.1,3.1v37.8C674,318.6,672.6,320,670.9,320z"/>
	<path id="XMLID_234_" class="st5" d="M724.5,320h-28.7c-1.7,0-3.1-1.4-3.1-3.1v-37.8c0-1.7,1.4-3.1,3.1-3.1h28.7
		c1.7,0,3.1,1.4,3.1,3.1v37.8C727.7,318.6,726.3,320,724.5,320z"/>
	<path id="XMLID_233_" class="st5" d="M778.3,320h-28.7c-1.7,0-3.1-1.4-3.1-3.1v-37.8c0-1.7,1.4-3.1,3.1-3.1h28.7
		c1.7,0,3.1,1.4,3.1,3.1v37.8C781.4,318.6,780,320,778.3,320z"/>
	<path id="XMLID_224_" class="st5" d="M804.6,191.7H457c-1.7,0-3.1,1.4-3.1,3.1v8.1c0,1.7,1.4,3.1,3.1,3.1h347.7
		c1.7,0,3.1-1.4,3.1-3.1v-8.1C807.7,193.1,806.3,191.7,804.6,191.7z"/>
	<path id="XMLID_225_" class="st5" d="M802.6,159.5H457.1c-2.3,0-4.1,1.9-4.1,4.1v5.9c0,2.3,1.9,4.1,4.1,4.1h345.5
		c2.3,0,4.1-1.9,4.1-4.1v-5.9C806.7,161.4,804.8,159.5,802.6,159.5z"/>
	<path id="XMLID_223_" class="st5" d="M511,260.5h-28.7c-1.7,0-3.1-1.4-3.1-3.1v-37.8c0-1.7,1.4-3.1,3.1-3.1H511
		c1.7,0,3.1,1.4,3.1,3.1v37.8C514.2,259.1,512.8,260.5,511,260.5z"/>
	<path id="XMLID_227_" class="st5" d="M563.5,260.5h-28.7c-1.7,0-3.1-1.4-3.1-3.1v-37.8c0-1.7,1.4-3.1,3.1-3.1h28.7
		c1.7,0,3.1,1.4,3.1,3.1v37.8C566.6,259.1,565.2,260.5,563.5,260.5z"/>
	<path id="XMLID_228_" class="st5" d="M617.2,260.5h-28.7c-1.7,0-3.1-1.4-3.1-3.1v-37.8c0-1.7,1.4-3.1,3.1-3.1h28.7
		c1.7,0,3.1,1.4,3.1,3.1v37.8C620.4,259.1,619,260.5,617.2,260.5z"/>
	<path id="XMLID_230_" class="st5" d="M670.9,260.5h-28.7c-1.7,0-3.1-1.4-3.1-3.1v-37.8c0-1.7,1.4-3.1,3.1-3.1h28.7
		c1.7,0,3.1,1.4,3.1,3.1v37.8C674,259.1,672.6,260.5,670.9,260.5z"/>
	<path id="XMLID_229_" class="st5" d="M724.6,255.6h-28.7c-1.7,0-3.1-1.4-3.1-3.1v-32.9c0-1.7,1.4-3.1,3.1-3.1h28.7
		c1.7,0,3.1,1.4,3.1,3.1v32.9C727.7,254.2,726.3,255.6,724.6,255.6z"/>
	<path id="XMLID_232_" class="st5" d="M724.5,260.5h-28.7c-1.7,0-3.1-1.4-3.1-3.1v-37.8c0-1.7,1.4-3.1,3.1-3.1h28.7
		c1.7,0,3.1,1.4,3.1,3.1v37.8C727.7,259.1,726.3,260.5,724.5,260.5z"/>
	<path id="XMLID_231_" class="st5" d="M778.3,260.5h-28.7c-1.7,0-3.1-1.4-3.1-3.1v-37.8c0-1.7,1.4-3.1,3.1-3.1h28.7
		c1.7,0,3.1,1.4,3.1,3.1v37.8C781.4,259.1,780,260.5,778.3,260.5z"/>
</g>
<rect id="XMLID_254_" x="637.1" y="125.5" class="st6" width="10.1" height="15.6"/>
<g id="XMLID_309_">
	<line id="XMLID_340_" class="st7" x1="955.9" y1="329.4" x2="955.9" y2="354.3"/>
	<line id="XMLID_339_" class="st7" x1="944.9" y1="329.4" x2="944.9" y2="354.3"/>
	<line id="XMLID_338_" class="st7" x1="933.9" y1="329.4" x2="933.9" y2="354.3"/>
	<line id="XMLID_337_" class="st7" x1="922.9" y1="329.4" x2="922.9" y2="354.3"/>
	<line id="XMLID_336_" class="st7" x1="911.9" y1="329.4" x2="911.9" y2="354.3"/>
	<line id="XMLID_335_" class="st7" x1="900.9" y1="329.4" x2="900.9" y2="354.3"/>
	<line id="XMLID_334_" class="st7" x1="889.9" y1="354.3" x2="889.9" y2="329.4"/>
	<polyline id="XMLID_333_" class="st8" points="778.6,307.2 882.9,329.4 882.9,329.4 1027.2,329.4 	"/>
	<line id="XMLID_332_" class="st7" x1="774.2" y1="306.9" x2="774.2" y2="331.9"/>
	<line id="XMLID_331_" class="st7" x1="763.2" y1="306.9" x2="763.2" y2="331.9"/>
	<line id="XMLID_330_" class="st7" x1="752.2" y1="306.9" x2="752.2" y2="331.9"/>
	<line id="XMLID_329_" class="st7" x1="741.2" y1="306.9" x2="741.2" y2="331.9"/>
	<line id="XMLID_328_" class="st7" x1="730.2" y1="306.9" x2="730.2" y2="331.9"/>
	<line id="XMLID_327_" class="st7" x1="719.2" y1="306.9" x2="719.2" y2="331.9"/>
	<line id="XMLID_326_" class="st7" x1="708.2" y1="306.9" x2="708.2" y2="331.9"/>
	<line id="XMLID_325_" class="st7" x1="697.2" y1="306.9" x2="697.2" y2="331.9"/>
	<line id="XMLID_324_" class="st7" x1="686.2" y1="306.9" x2="686.2" y2="331.9"/>
	<polyline id="XMLID_323_" class="st8" points="657.4,306.9 657.4,307.2 778.6,307.2 	"/>
	<line id="XMLID_322_" class="st7" x1="879.1" y1="328.6" x2="879.1" y2="353.5"/>
	<line id="XMLID_321_" class="st7" x1="871.1" y1="326.9" x2="871.1" y2="351.8"/>
	<line id="XMLID_320_" class="st7" x1="863.2" y1="325.2" x2="863.2" y2="350.1"/>
	<line id="XMLID_319_" class="st7" x1="855.2" y1="323.5" x2="855.2" y2="348.4"/>
	<line id="XMLID_318_" class="st7" x1="847.2" y1="321.8" x2="847.2" y2="346.8"/>
	<line id="XMLID_317_" class="st7" x1="839.3" y1="320.1" x2="839.3" y2="345.1"/>
	<line id="XMLID_316_" class="st7" x1="831.3" y1="318.4" x2="831.3" y2="343.4"/>
	<line id="XMLID_315_" class="st7" x1="823.4" y1="316.8" x2="823.4" y2="341.7"/>
	<line id="XMLID_314_" class="st7" x1="815.4" y1="315.1" x2="815.4" y2="340"/>
	<line id="XMLID_313_" class="st7" x1="807.5" y1="313.4" x2="807.5" y2="338.3"/>
	<line id="XMLID_312_" class="st7" x1="799.5" y1="311.7" x2="799.5" y2="336.6"/>
	<line id="XMLID_311_" class="st7" x1="791.6" y1="310" x2="791.6" y2="334.9"/>
	<line id="XMLID_310_" class="st7" x1="783.6" y1="333.2" x2="783.6" y2="308.3"/>
</g>
<line id="XMLID_114_" class="st9" x1="240" y1="329.1" x2="240" y2="354.1"/>
<line id="XMLID_118_" class="st9" x1="251" y1="329.1" x2="251" y2="354.1"/>
<line id="XMLID_119_" class="st9" x1="262" y1="329.1" x2="262" y2="354.1"/>
<line id="XMLID_123_" class="st9" x1="273" y1="329.1" x2="273" y2="354.1"/>
<line id="XMLID_121_" class="st9" x1="284" y1="329.1" x2="284" y2="354.1"/>
<g id="XMLID_298_">
	<line id="XMLID_129_" class="st7" x1="306" y1="329.1" x2="306" y2="354.1"/>
	<line id="XMLID_127_" class="st7" x1="317" y1="329.1" x2="317" y2="354.1"/>
	<line id="XMLID_125_" class="st7" x1="328" y1="329.1" x2="328" y2="354.1"/>
	<line id="XMLID_140_" class="st7" x1="339" y1="329.1" x2="339" y2="354.1"/>
	<line id="XMLID_138_" class="st7" x1="350" y1="329.1" x2="350" y2="354.1"/>
	<line id="XMLID_136_" class="st7" x1="361" y1="329.1" x2="361" y2="354.1"/>
	<line id="XMLID_134_" class="st7" x1="372" y1="354.1" x2="372" y2="329.1"/>
	<polyline id="XMLID_190_" class="st8" points="483.3,306.9 379,329.1 379,329.1 234.7,329.1 	"/>
	<line id="XMLID_201_" class="st7" x1="487.7" y1="306.6" x2="487.7" y2="331.6"/>
	<line id="XMLID_200_" class="st7" x1="498.7" y1="306.6" x2="498.7" y2="331.6"/>
	<line id="XMLID_199_" class="st7" x1="509.7" y1="306.6" x2="509.7" y2="331.6"/>
	<line id="XMLID_198_" class="st7" x1="520.7" y1="306.6" x2="520.7" y2="331.6"/>
	<line id="XMLID_197_" class="st7" x1="531.7" y1="306.6" x2="531.7" y2="331.6"/>
	<line id="XMLID_196_" class="st7" x1="542.7" y1="306.6" x2="542.7" y2="331.6"/>
	<line id="XMLID_205_" class="st7" x1="553.7" y1="306.6" x2="553.7" y2="331.6"/>
	<line id="XMLID_204_" class="st7" x1="564.7" y1="306.6" x2="564.7" y2="331.6"/>
	<line id="XMLID_203_" class="st7" x1="575.7" y1="306.6" x2="575.7" y2="331.6"/>
	<polyline id="XMLID_192_" class="st8" points="604.5,306.6 604.5,306.9 483.3,306.9 	"/>
	<line id="XMLID_189_" class="st7" x1="382.8" y1="328.3" x2="382.8" y2="353.2"/>
	<line id="XMLID_188_" class="st7" x1="390.8" y1="326.6" x2="390.8" y2="351.5"/>
	<line id="XMLID_187_" class="st7" x1="398.7" y1="324.9" x2="398.7" y2="349.9"/>
	<line id="XMLID_186_" class="st7" x1="406.7" y1="323.2" x2="406.7" y2="348.2"/>
	<line id="XMLID_185_" class="st7" x1="414.6" y1="321.5" x2="414.6" y2="346.5"/>
	<line id="XMLID_184_" class="st7" x1="422.6" y1="319.9" x2="422.6" y2="344.8"/>
	<line id="XMLID_183_" class="st7" x1="430.6" y1="318.2" x2="430.6" y2="343.1"/>
	<line id="XMLID_182_" class="st7" x1="438.5" y1="316.5" x2="438.5" y2="341.4"/>
	<line id="XMLID_181_" class="st7" x1="446.5" y1="314.8" x2="446.5" y2="339.7"/>
	<line id="XMLID_144_" class="st7" x1="454.4" y1="313.1" x2="454.4" y2="338"/>
	<line id="XMLID_141_" class="st7" x1="462.4" y1="311.4" x2="462.4" y2="336.3"/>
	<line id="XMLID_139_" class="st7" x1="470.3" y1="309.7" x2="470.3" y2="334.6"/>
	<line id="XMLID_137_" class="st7" x1="478.3" y1="333" x2="478.3" y2="308"/>
</g>
<line id="XMLID_131_" class="st9" x1="295" y1="329.1" x2="295" y2="354.1"/>
<rect id="XMLID_1_" x="71.5" y="201.8" class="st10" width="226.7" height="152.3"/>
<g id="XMLID_2_">
	<rect id="XMLID_60_" x="85.2" y="213.8" class="st11" width="19" height="30.2"/>
	<path id="XMLID_39_" class="st12" d="M103.7,214.3v29.2h-18v-29.2H103.7 M104.7,213.3h-20v31.2h20V213.3L104.7,213.3z"/>
</g>
<rect id="XMLID_26_" x="114.7" y="213.3" class="st13" width="20" height="31.2"/>
<rect id="XMLID_25_" x="144.7" y="213.3" class="st13" width="20" height="31.2"/>
<rect id="XMLID_28_" x="174.7" y="213.3" class="st13" width="20" height="31.2"/>
<rect id="XMLID_27_" x="204.7" y="213.3" class="st13" width="20" height="31.2"/>
<rect id="XMLID_30_" x="234.7" y="213.3" class="st13" width="20" height="31.2"/>
<rect id="XMLID_29_" x="264.7" y="213.3" class="st13" width="20" height="31.2"/>
<g id="XMLID_38_">
	<rect id="XMLID_75_" x="85.2" y="245" class="st12" width="19" height="10.2"/>
	<path id="XMLID_72_" class="st12" d="M103.7,245.5v9.2h-18v-9.2H103.7 M104.7,244.5h-20v11.2h20V244.5L104.7,244.5z"/>
</g>
<rect id="XMLID_37_" x="114.7" y="244.5" class="st14" width="20" height="11.2"/>
<rect id="XMLID_36_" x="144.7" y="244.5" class="st14" width="20" height="11.2"/>
<rect id="XMLID_34_" x="174.7" y="244.5" class="st14" width="20" height="11.2"/>
<rect id="XMLID_33_" x="204.7" y="244.5" class="st14" width="20" height="11.2"/>
<rect id="XMLID_32_" x="234.7" y="244.5" class="st14" width="20" height="11.2"/>
<rect id="XMLID_31_" x="264.7" y="244.5" class="st14" width="20" height="11.2"/>
<g id="XMLID_84_">
	<rect id="XMLID_89_" x="85.2" y="256.1" class="st11" width="19" height="30.2"/>
	<path id="XMLID_86_" class="st12" d="M103.7,256.6v29.2h-18v-29.2H103.7 M104.7,255.6h-20v31.2h20V255.6L104.7,255.6z"/>
</g>
<rect id="XMLID_83_" x="114.7" y="255.6" class="st13" width="20" height="31.2"/>
<rect id="XMLID_82_" x="144.7" y="255.6" class="st13" width="20" height="31.2"/>
<rect id="XMLID_81_" x="174.7" y="255.6" class="st13" width="20" height="31.2"/>
<rect id="XMLID_80_" x="204.7" y="255.6" class="st13" width="20" height="31.2"/>
<rect id="XMLID_79_" x="234.7" y="255.6" class="st13" width="20" height="31.2"/>
<rect id="XMLID_78_" x="264.7" y="255.6" class="st13" width="20" height="31.2"/>
<g id="XMLID_67_">
	<rect id="XMLID_77_" x="85.2" y="287.3" class="st12" width="19" height="10.2"/>
	<path id="XMLID_70_" class="st12" d="M103.7,287.8v9.2h-18v-9.2H103.7 M104.7,286.8h-20V298h20V286.8L104.7,286.8z"/>
</g>
<rect id="XMLID_66_" x="114.7" y="286.8" class="st14" width="20" height="11.2"/>
<rect id="XMLID_65_" x="144.7" y="286.8" class="st14" width="20" height="11.2"/>
<rect id="XMLID_64_" x="174.7" y="286.8" class="st14" width="20" height="11.2"/>
<rect id="XMLID_63_" x="204.7" y="286.8" class="st14" width="20" height="11.2"/>
<rect id="XMLID_62_" x="234.7" y="286.8" class="st14" width="20" height="11.2"/>
<rect id="XMLID_61_" x="264.7" y="286.8" class="st14" width="20" height="11.2"/>
<g id="XMLID_108_">
	<rect id="XMLID_113_" x="85.2" y="298.5" class="st11" width="19" height="30.2"/>
	<path id="XMLID_110_" class="st12" d="M103.7,299v29.2h-18V299H103.7 M104.7,298h-20v31.2h20V298L104.7,298z"/>
</g>
<rect id="XMLID_107_" x="114.7" y="298" class="st13" width="20" height="31.2"/>
<rect id="XMLID_106_" x="144.7" y="298" class="st13" width="20" height="31.2"/>
<rect id="XMLID_105_" x="174.7" y="298" class="st13" width="20" height="31.2"/>
<rect id="XMLID_104_" x="204.7" y="298" class="st13" width="20" height="31.2"/>
<rect id="XMLID_103_" x="234.7" y="298" class="st13" width="20" height="31.2"/>
<rect id="XMLID_102_" x="264.7" y="298" class="st13" width="20" height="31.2"/>
<g id="XMLID_348_">
	<rect id="XMLID_352_" x="931.2" y="354.1" class="st15" width="71.7" height="19.1"/>
	<rect id="XMLID_351_" x="931.2" y="354.1" class="st16" width="23.3" height="6.4"/>
	<rect id="XMLID_350_" x="954.5" y="360.4" class="st16" width="23.3" height="6.4"/>
	<rect id="XMLID_349_" x="931.2" y="366.8" class="st16" width="23.3" height="6.4"/>
</g>
<g id="XMLID_96_">
	<rect id="XMLID_101_" x="85.2" y="329.6" class="st12" width="19" height="10.2"/>
	<path id="XMLID_98_" class="st12" d="M103.7,330.1v9.2h-18v-9.2H103.7 M104.7,329.1h-20v11.2h20V329.1L104.7,329.1z"/>
</g>
<rect id="XMLID_95_" x="114.7" y="329.1" class="st14" width="20" height="11.2"/>
<rect id="XMLID_94_" x="144.7" y="329.1" class="st14" width="20" height="11.2"/>
<rect id="XMLID_93_" x="174.7" y="329.1" class="st14" width="20" height="11.2"/>
<rect id="XMLID_92_" x="204.7" y="329.1" class="st14" width="20" height="11.2"/>
<rect id="XMLID_91_" x="234.7" y="329.1" class="st14" width="20" height="11.2"/>
<rect id="XMLID_90_" x="264.7" y="329.1" class="st14" width="20" height="11.2"/>
<path id="XMLID_22_" class="st12" d="M301.5,193.8H68.2c-2.2,0-4,1.8-4,4v0c0,2.2,1.8,4,4,4h233.3c2.2,0,4-1.8,4-4v0
	C305.5,195.6,303.7,193.8,301.5,193.8z"/>
<g id="XMLID_133_">
	<rect id="XMLID_116_" x="71.5" y="354.1" class="st15" width="71.7" height="19.1"/>
	<rect id="XMLID_142_" x="71.5" y="354.1" class="st16" width="23.3" height="6.4"/>
	<rect id="XMLID_143_" x="94.8" y="360.4" class="st16" width="23.3" height="6.4"/>
	<rect id="XMLID_145_" x="71.5" y="366.8" class="st16" width="23.3" height="6.4"/>
</g>
<g id="XMLID_146_">
	<rect id="XMLID_150_" x="143.2" y="354.1" class="st15" width="71.7" height="19.1"/>
	<rect id="XMLID_149_" x="143.2" y="354.1" class="st16" width="23.3" height="6.4"/>
	<rect id="XMLID_148_" x="166.5" y="360.4" class="st16" width="23.3" height="6.4"/>
	<rect id="XMLID_147_" x="143.2" y="366.8" class="st16" width="23.3" height="6.4"/>
</g>
<g id="XMLID_156_">
	<rect id="XMLID_160_" x="214.8" y="354.1" class="st15" width="71.7" height="19.1"/>
	<rect id="XMLID_159_" x="214.8" y="354.1" class="st16" width="23.3" height="6.4"/>
	<rect id="XMLID_158_" x="238.2" y="360.4" class="st16" width="23.3" height="6.4"/>
	<rect id="XMLID_157_" x="214.8" y="366.8" class="st16" width="23.3" height="6.4"/>
</g>
<g id="XMLID_151_">
	<rect id="XMLID_155_" x="286.5" y="354.1" class="st15" width="71.7" height="19.1"/>
	<rect id="XMLID_154_" x="286.5" y="354.1" class="st16" width="23.3" height="6.4"/>
	<rect id="XMLID_153_" x="309.8" y="360.4" class="st16" width="23.3" height="6.4"/>
	<rect id="XMLID_152_" x="286.5" y="366.8" class="st16" width="23.3" height="6.4"/>
</g>
<g id="XMLID_176_">
	<rect id="XMLID_180_" x="358.2" y="354.1" class="st15" width="71.7" height="19.1"/>
	<rect id="XMLID_179_" x="358.2" y="354.1" class="st16" width="23.3" height="6.4"/>
	<rect id="XMLID_178_" x="381.5" y="360.4" class="st16" width="23.3" height="6.4"/>
	<rect id="XMLID_177_" x="358.2" y="366.8" class="st16" width="23.3" height="6.4"/>
</g>
<ellipse id="XMLID_195_" class="st17" cx="630.8" cy="335.2" rx="121.2" ry="29.8"/>
<g id="XMLID_171_">
	<rect id="XMLID_175_" x="429.8" y="354.1" class="st15" width="71.7" height="19.1"/>
	<rect id="XMLID_174_" x="429.8" y="354.1" class="st16" width="23.3" height="6.4"/>
	<rect id="XMLID_173_" x="453.2" y="360.4" class="st16" width="23.3" height="6.4"/>
	<rect id="XMLID_172_" x="429.8" y="366.8" class="st16" width="23.3" height="6.4"/>
</g>
<g id="XMLID_166_">
	<rect id="XMLID_170_" x="501.5" y="354.1" class="st15" width="71.7" height="19.1"/>
	<rect id="XMLID_169_" x="501.5" y="354.1" class="st16" width="23.3" height="6.4"/>
	<rect id="XMLID_168_" x="524.8" y="360.4" class="st16" width="23.3" height="6.4"/>
	<rect id="XMLID_167_" x="501.5" y="366.8" class="st16" width="23.3" height="6.4"/>
</g>
<g id="XMLID_161_">
	<rect id="XMLID_165_" x="573.2" y="354.1" class="st15" width="71.7" height="19.1"/>
	<rect id="XMLID_164_" x="573.2" y="354.1" class="st16" width="23.3" height="6.4"/>
	<rect id="XMLID_163_" x="596.5" y="360.4" class="st16" width="23.3" height="6.4"/>
	<rect id="XMLID_162_" x="573.2" y="366.8" class="st16" width="23.3" height="6.4"/>
</g>
<g id="XMLID_216_">
	<rect id="XMLID_220_" x="644.5" y="354.1" class="st15" width="71.7" height="19.1"/>
	<rect id="XMLID_219_" x="644.5" y="354.1" class="st16" width="23.3" height="6.4"/>
	<rect id="XMLID_218_" x="667.8" y="360.4" class="st16" width="23.3" height="6.4"/>
	<rect id="XMLID_217_" x="644.5" y="366.8" class="st16" width="23.3" height="6.4"/>
</g>
<g id="XMLID_211_">
	<rect id="XMLID_215_" x="716.2" y="354.1" class="st15" width="71.7" height="19.1"/>
	<rect id="XMLID_214_" x="716.2" y="354.1" class="st16" width="23.3" height="6.4"/>
	<rect id="XMLID_213_" x="739.5" y="360.4" class="st16" width="23.3" height="6.4"/>
	<rect id="XMLID_212_" x="716.2" y="366.8" class="st16" width="23.3" height="6.4"/>
</g>
<g id="XMLID_206_">
	<rect id="XMLID_210_" x="787.8" y="354.1" class="st15" width="71.7" height="19.1"/>
	<rect id="XMLID_209_" x="787.8" y="354.1" class="st16" width="23.3" height="6.4"/>
	<rect id="XMLID_208_" x="811.2" y="360.4" class="st16" width="23.3" height="6.4"/>
	<rect id="XMLID_207_" x="787.8" y="366.8" class="st16" width="23.3" height="6.4"/>
</g>
<g id="XMLID_353_">
	<rect id="XMLID_357_" x="859.5" y="354.1" class="st15" width="71.7" height="19.1"/>
	<rect id="XMLID_356_" x="859.5" y="354.1" class="st16" width="23.3" height="6.4"/>
	<rect id="XMLID_355_" x="882.8" y="360.4" class="st16" width="23.3" height="6.4"/>
	<rect id="XMLID_354_" x="859.5" y="366.8" class="st16" width="23.3" height="6.4"/>
</g>
<g id="XMLID_343_">
	<rect id="XMLID_347_" x="1002.8" y="354.1" class="st15" width="71.7" height="19.1"/>
	<rect id="XMLID_346_" x="1002.8" y="354.1" class="st16" width="23.3" height="6.4"/>
	<rect id="XMLID_345_" x="1026.2" y="360.4" class="st16" width="23.3" height="6.4"/>
	<rect id="XMLID_344_" x="1002.8" y="366.8" class="st16" width="23.3" height="6.4"/>
</g>
<g id="XMLID_413_">
	<rect id="XMLID_426_" x="1073.3" y="354.1" class="st15" width="71.7" height="19.1"/>
	<rect id="XMLID_420_" x="1073.3" y="354.1" class="st16" width="23.3" height="6.4"/>
	<rect id="XMLID_416_" x="1096.6" y="360.4" class="st16" width="23.3" height="6.4"/>
	<rect id="XMLID_415_" x="1073.3" y="366.8" class="st16" width="23.3" height="6.4"/>
</g>
<rect id="XMLID_383_" x="1145" y="354.1" class="st15" width="23.3" height="19.1"/>
<rect id="XMLID_382_" x="1145" y="354.1" class="st16" width="23.3" height="6.4"/>
<rect id="XMLID_380_" x="1145" y="366.8" class="st16" width="23.3" height="6.4"/>
<path id="XMLID_194_" class="st18" d="M757.1,318.8H504.5c-1.7,0-3,1.3-3,3v25.9c0,1.7,1.3,3,3,3h252.6c1.7,0,3-1.3,3-3v-25.9
	C760.1,320.2,758.8,318.8,757.1,318.8z"/>
<polygon id="XMLID_132_" class="st19" points="436.5,354.1 487.8,354.1 547,354.1 547,334.6 483.3,338 "/>
<rect id="XMLID_264_" x="645.3" y="130.6" class="st20" width="1.9" height="1.7"/>
<rect id="XMLID_263_" x="645.3" y="127.2" class="st20" width="1.9" height="1.7"/>
<rect id="XMLID_262_" x="633.1" y="137.4" class="st20" width="14.1" height="1.7"/>
<rect id="XMLID_261_" x="645.3" y="134" class="st20" width="1.9" height="1.7"/>
<polygon id="XMLID_255_" class="st21" points="637.1,141.2 645,137.5 637.1,137.5 "/>
<polygon id="XMLID_115_" class="st15" points="380.5,354.1 487.3,330.6 547,330.6 547,343.1 487.8,343.1 436.5,354.1 "/>
<polygon id="XMLID_342_" class="st15" points="883.8,354.1 777,330.6 717.3,330.6 717.3,343.1 776.5,343.1 827.8,354.1 "/>
<path id="XMLID_222_" class="st22" d="M758.5,341h72.8c3.3,0,5.9,2.7,5.9,5.9v1.2c0,3.3-2.7,5.9-5.9,5.9h-72.8
	c-3.3,0-5.9-2.7-5.9-5.9v-1.2C752.6,343.7,755.2,341,758.5,341z"/>
<path id="XMLID_191_" class="st22" d="M436.5,340.8h72.8c3.3,0,5.9,2.7,5.9,5.9v1.2c0,3.3-2.7,5.9-5.9,5.9h-72.8
	c-3.3,0-5.9-2.7-5.9-5.9v-1.2C430.6,343.5,433.2,340.8,436.5,340.8z"/>
<path id="XMLID_122_" class="st23" d="M757.1,322.2H504.5c-1.7,0-3,1.3-3,3v25.9c0,1.7,1.3,3,3,3h252.6c1.7,0,3-1.3,3-3v-25.9
	C760.1,323.5,758.8,322.2,757.1,322.2z"/>
<rect id="XMLID_252_" x="629.8" y="122.2" class="st6" width="15.2" height="15.3"/>
<line id="XMLID_226_" class="st24" x1="629.8" y1="159.5" x2="629.8" y2="122.1"/>
<g id="XMLID_3_">
	<path id="XMLID_4_" class="st20" d="M516.4,334.2c0-0.7,0.5-1.2,1.2-1.2h0.2c0.6,0,0.9,0.3,1.2,0.7l4.5,5.9v-5.5
		c0-0.6,0.5-1.2,1.2-1.2c0.6,0,1.2,0.5,1.2,1.2v8.4c0,0.7-0.5,1.2-1.2,1.2h-0.1c-0.6,0-0.9-0.3-1.2-0.7l-4.7-6.1v5.7
		c0,0.6-0.5,1.2-1.2,1.2c-0.6,0-1.2-0.5-1.2-1.2V334.2z"/>
	<path id="XMLID_239_" class="st20" d="M527.9,338.5L527.9,338.5c0-3,2.4-5.5,5.7-5.5c3.3,0,5.6,2.4,5.6,5.5v0c0,3-2.4,5.5-5.7,5.5
		C530.3,343.9,527.9,341.5,527.9,338.5z M536.8,338.5L536.8,338.5c0-1.8-1.3-3.4-3.2-3.4s-3.2,1.5-3.2,3.3v0c0,1.8,1.3,3.3,3.2,3.3
		S536.8,340.3,536.8,338.5z"/>
	<path id="XMLID_242_" class="st20" d="M541.3,334.3c0-0.7,0.5-1.2,1.2-1.2h3.7c1.3,0,2.4,0.4,3.1,1.1c0.6,0.6,0.9,1.4,0.9,2.4v0
		c0,1.7-0.8,2.7-2.1,3.2l1.6,2c0.2,0.3,0.4,0.5,0.4,0.9c0,0.7-0.5,1.1-1.1,1.1c-0.5,0-0.9-0.3-1.2-0.6l-2.3-2.9h-1.9v2.3
		c0,0.7-0.5,1.2-1.2,1.2s-1.2-0.5-1.2-1.2V334.3z M546,338.3c1.1,0,1.8-0.6,1.8-1.5v0c0-1-0.7-1.5-1.8-1.5h-2.3v3H546z"/>
	<path id="XMLID_245_" class="st20" d="M554.7,335.3h-2.2c-0.6,0-1.1-0.5-1.1-1.1s0.5-1.1,1.1-1.1h6.8c0.6,0,1.1,0.5,1.1,1.1
		s-0.5,1.1-1.1,1.1h-2.2v7.4c0,0.7-0.5,1.2-1.2,1.2s-1.2-0.5-1.2-1.2V335.3z"/>
	<path id="XMLID_247_" class="st20" d="M562.1,334.2c0-0.7,0.5-1.2,1.2-1.2s1.2,0.5,1.2,1.2v3.1h4.3v-3.1c0-0.7,0.5-1.2,1.2-1.2
		s1.2,0.5,1.2,1.2v8.5c0,0.7-0.5,1.2-1.2,1.2s-1.2-0.5-1.2-1.2v-3.2h-4.3v3.2c0,0.7-0.5,1.2-1.2,1.2s-1.2-0.5-1.2-1.2V334.2z"/>
	<path id="XMLID_249_" class="st20" d="M573.6,342.6v-8.3c0-0.7,0.5-1.2,1.2-1.2h5.9c0.6,0,1,0.5,1,1c0,0.6-0.5,1-1,1h-4.7v2.2h4
		c0.6,0,1,0.5,1,1c0,0.6-0.5,1-1,1h-4v2.2h4.8c0.6,0,1,0.5,1,1s-0.5,1-1,1h-6C574.1,343.7,573.6,343.2,573.6,342.6z"/>
	<path id="XMLID_251_" class="st20" d="M583.2,342.2l3.7-8.3c0.3-0.6,0.7-0.9,1.4-0.9h0.1c0.6,0,1.1,0.3,1.3,0.9l3.7,8.3
		c0.1,0.2,0.1,0.3,0.1,0.5c0,0.6-0.5,1.1-1.1,1.1c-0.5,0-0.9-0.3-1.1-0.8l-0.7-1.7h-4.7l-0.7,1.7c-0.2,0.5-0.6,0.7-1.1,0.7
		c-0.6,0-1.1-0.5-1.1-1.1C583,342.6,583.1,342.4,583.2,342.2z M589.7,339.3l-1.5-3.5l-1.5,3.5H589.7z"/>
	<path id="XMLID_381_" class="st20" d="M595.1,342.6c-0.3-0.2-0.4-0.5-0.4-0.9c0-0.6,0.5-1.1,1.1-1.1c0.3,0,0.5,0.1,0.7,0.2
		c0.8,0.6,1.7,1,2.7,1c1,0,1.5-0.4,1.5-1v0c0-0.6-0.4-0.9-2.1-1.3c-2.1-0.5-3.5-1.1-3.5-3.2v0c0-1.9,1.5-3.2,3.7-3.2
		c1.3,0,2.4,0.3,3.4,0.9c0.3,0.2,0.5,0.5,0.5,0.9c0,0.6-0.5,1.1-1.1,1.1c-0.2,0-0.4-0.1-0.6-0.2c-0.8-0.5-1.5-0.7-2.2-0.7
		c-0.9,0-1.4,0.4-1.4,0.9v0c0,0.7,0.5,0.9,2.3,1.4c2.2,0.6,3.4,1.3,3.4,3.2v0c0,2.1-1.6,3.3-3.9,3.3
		C597.7,343.9,596.3,343.5,595.1,342.6z"/>
	<path id="XMLID_389_" class="st20" d="M607.2,335.3H605c-0.6,0-1.1-0.5-1.1-1.1s0.5-1.1,1.1-1.1h6.8c0.6,0,1.1,0.5,1.1,1.1
		s-0.5,1.1-1.1,1.1h-2.2v7.4c0,0.7-0.5,1.2-1.2,1.2s-1.2-0.5-1.2-1.2V335.3z"/>
	<path id="XMLID_391_" class="st20" d="M614.6,342.6v-8.3c0-0.7,0.5-1.2,1.2-1.2h5.9c0.6,0,1,0.5,1,1c0,0.6-0.5,1-1,1h-4.7v2.2h4
		c0.6,0,1,0.5,1,1c0,0.6-0.5,1-1,1h-4v2.2h4.8c0.6,0,1,0.5,1,1s-0.5,1-1,1h-6C615.1,343.7,614.6,343.2,614.6,342.6z"/>
	<path id="XMLID_592_" class="st20" d="M624.7,334.3c0-0.7,0.5-1.2,1.2-1.2h3.7c1.3,0,2.4,0.4,3.1,1.1c0.6,0.6,0.9,1.4,0.9,2.4v0
		c0,1.7-0.8,2.7-2.1,3.2l1.6,2c0.2,0.3,0.4,0.5,0.4,0.9c0,0.7-0.5,1.1-1.1,1.1c-0.5,0-0.9-0.3-1.2-0.6l-2.3-2.9h-1.9v2.3
		c0,0.7-0.5,1.2-1.2,1.2s-1.2-0.5-1.2-1.2V334.3z M629.4,338.3c1.1,0,1.8-0.6,1.8-1.5v0c0-1-0.7-1.5-1.8-1.5h-2.3v3H629.4z"/>
	<path id="XMLID_595_" class="st20" d="M635.7,334.2c0-0.7,0.5-1.2,1.2-1.2h0.2c0.6,0,0.9,0.3,1.2,0.7l4.5,5.9v-5.5
		c0-0.6,0.5-1.2,1.2-1.2c0.6,0,1.2,0.5,1.2,1.2v8.4c0,0.7-0.5,1.2-1.2,1.2h-0.1c-0.6,0-0.9-0.3-1.2-0.7L638,337v5.7
		c0,0.6-0.5,1.2-1.2,1.2c-0.6,0-1.2-0.5-1.2-1.2V334.2z"/>
	<path id="XMLID_597_" class="st20" d="M652,339.2v-5c0-0.7,0.5-1.2,1.2-1.2c0.7,0,1.2,0.5,1.2,1.2v4.9c0,1.7,0.9,2.6,2.3,2.6
		c1.4,0,2.3-0.9,2.3-2.5v-5c0-0.7,0.5-1.2,1.2-1.2c0.7,0,1.2,0.5,1.2,1.2v4.9c0,3.2-1.8,4.8-4.7,4.8S652,342.3,652,339.2z"/>
	<path id="XMLID_600_" class="st20" d="M663.7,334.2c0-0.7,0.5-1.2,1.2-1.2h0.2c0.6,0,0.9,0.3,1.2,0.7l4.5,5.9v-5.5
		c0-0.6,0.5-1.2,1.2-1.2c0.6,0,1.2,0.5,1.2,1.2v8.4c0,0.7-0.5,1.2-1.2,1.2h-0.1c-0.6,0-0.9-0.3-1.2-0.7L666,337v5.7
		c0,0.6-0.5,1.2-1.2,1.2c-0.6,0-1.2-0.5-1.2-1.2V334.2z"/>
	<path id="XMLID_602_" class="st20" d="M675.7,334.2c0-0.7,0.5-1.2,1.2-1.2c0.7,0,1.2,0.5,1.2,1.2v8.5c0,0.7-0.5,1.2-1.2,1.2
		c-0.7,0-1.2-0.5-1.2-1.2V334.2z"/>
	<path id="XMLID_604_" class="st20" d="M683.6,343l-3.4-8.2c-0.1-0.2-0.1-0.4-0.1-0.6c0-0.7,0.5-1.2,1.2-1.2c0.6,0,1,0.3,1.2,0.8
		l2.7,6.9l2.7-6.9c0.2-0.4,0.6-0.7,1.1-0.7c0.6,0,1.2,0.5,1.2,1.1c0,0.2-0.1,0.4-0.1,0.5l-3.5,8.3c-0.2,0.6-0.7,0.9-1.3,0.9h-0.2
		C684.2,343.9,683.8,343.6,683.6,343z"/>
	<path id="XMLID_606_" class="st20" d="M691.7,342.6v-8.3c0-0.7,0.5-1.2,1.2-1.2h5.9c0.6,0,1,0.5,1,1c0,0.6-0.5,1-1,1h-4.7v2.2h4
		c0.6,0,1,0.5,1,1c0,0.6-0.5,1-1,1h-4v2.2h4.8c0.6,0,1,0.5,1,1s-0.5,1-1,1h-6C692.3,343.7,691.7,343.2,691.7,342.6z"/>
	<path id="XMLID_608_" class="st20" d="M701.9,334.3c0-0.7,0.5-1.2,1.2-1.2h3.7c1.3,0,2.4,0.4,3.1,1.1c0.6,0.6,0.9,1.4,0.9,2.4v0
		c0,1.7-0.8,2.7-2.1,3.2l1.6,2c0.2,0.3,0.4,0.5,0.4,0.9c0,0.7-0.5,1.1-1.1,1.1c-0.5,0-0.9-0.3-1.2-0.6l-2.3-2.9h-1.9v2.3
		c0,0.7-0.5,1.2-1.2,1.2s-1.2-0.5-1.2-1.2V334.3z M706.6,338.3c1.1,0,1.8-0.6,1.8-1.5v0c0-1-0.7-1.5-1.8-1.5h-2.3v3H706.6z"/>
	<path id="XMLID_611_" class="st20" d="M712.6,342.6c-0.3-0.2-0.4-0.5-0.4-0.9c0-0.6,0.5-1.1,1.1-1.1c0.3,0,0.5,0.1,0.7,0.2
		c0.8,0.6,1.7,1,2.7,1c1,0,1.5-0.4,1.5-1v0c0-0.6-0.4-0.9-2.1-1.3c-2.1-0.5-3.5-1.1-3.5-3.2v0c0-1.9,1.5-3.2,3.7-3.2
		c1.3,0,2.4,0.3,3.4,0.9c0.3,0.2,0.5,0.5,0.5,0.9c0,0.6-0.5,1.1-1.1,1.1c-0.2,0-0.4-0.1-0.6-0.2c-0.8-0.5-1.5-0.7-2.2-0.7
		c-0.9,0-1.4,0.4-1.4,0.9v0c0,0.7,0.5,0.9,2.3,1.4c2.2,0.6,3.4,1.3,3.4,3.2v0c0,2.1-1.6,3.3-3.9,3.3
		C715.2,343.9,713.8,343.5,712.6,342.6z"/>
	<path id="XMLID_613_" class="st20" d="M722.7,334.2c0-0.7,0.5-1.2,1.2-1.2c0.7,0,1.2,0.5,1.2,1.2v8.5c0,0.7-0.5,1.2-1.2,1.2
		c-0.7,0-1.2-0.5-1.2-1.2V334.2z"/>
	<path id="XMLID_615_" class="st20" d="M730.1,335.3h-2.2c-0.6,0-1.1-0.5-1.1-1.1s0.5-1.1,1.1-1.1h6.8c0.6,0,1.1,0.5,1.1,1.1
		s-0.5,1.1-1.1,1.1h-2.2v7.4c0,0.7-0.5,1.2-1.2,1.2s-1.2-0.5-1.2-1.2V335.3z"/>
	<path id="XMLID_617_" class="st20" d="M740.2,339.7l-3.4-4.7c-0.2-0.2-0.3-0.5-0.3-0.8c0-0.6,0.5-1.1,1.2-1.1
		c0.5,0,0.9,0.3,1.2,0.7l2.6,3.7l2.6-3.7c0.3-0.4,0.6-0.7,1.1-0.7c0.7,0,1.1,0.5,1.1,1.1c0,0.3-0.2,0.6-0.3,0.8l-3.4,4.6v3.1
		c0,0.7-0.5,1.2-1.2,1.2c-0.7,0-1.2-0.5-1.2-1.2V339.7z"/>
</g>
<path id="XMLID_193_" class="st17" d="M454.8,340.8h28.5c3.3,0,5.9,2.7,5.9,5.9v1.2c0,3.3-2.7,5.9-5.9,5.9h-28.5
	c-3.3,0-5.9-2.7-5.9-5.9v-1.2C448.9,343.5,451.5,340.8,454.8,340.8z"/>
<g id="XMLID_117_">
	<path id="XMLID_120_" class="st17" d="M90.4,347.5h15.2c3.3,0,5.9,2.7,5.9,5.9v1.2c0,3.3-2.7,5.9-5.9,5.9H90.4
		c-3.3,0-5.9-2.7-5.9-5.9v-1.2C84.5,350.2,87.2,347.5,90.4,347.5z"/>
	<path id="XMLID_124_" class="st17" d="M93.8,334.4h8.4c3.3,0,5.9,2.7,5.9,5.9v1.2c0,3.3-2.7,5.9-5.9,5.9h-8.4
		c-3.3,0-5.9-2.7-5.9-5.9v-1.2C87.9,337.1,90.6,334.4,93.8,334.4z"/>
</g>
<g id="XMLID_128_">
	<path id="XMLID_265_" class="st17" d="M265.4,347.5h15.2c3.3,0,5.9,2.7,5.9,5.9v1.2c0,3.3-2.7,5.9-5.9,5.9h-15.2
		c-3.3,0-5.9-2.7-5.9-5.9v-1.2C259.5,350.2,262.2,347.5,265.4,347.5z"/>
	<path id="XMLID_130_" class="st17" d="M268.8,334.4h8.4c3.3,0,5.9,2.7,5.9,5.9v1.2c0,3.3-2.7,5.9-5.9,5.9h-8.4
		c-3.3,0-5.9-2.7-5.9-5.9v-1.2C262.9,337.1,265.5,334.4,268.8,334.4z"/>
</g>
<path id="XMLID_300_" class="st20" d="M362.5,141.5H391c3.3,0,5.9,2.7,5.9,5.9v1.2c0,3.3-2.7,5.9-5.9,5.9h-28.5
	c-3.3,0-5.9-2.7-5.9-5.9v-1.2C356.6,144.1,359.3,141.5,362.5,141.5z"/>
<path id="XMLID_301_" class="st20" d="M373.4,135h43.3c3.3,0,5.9,2.7,5.9,5.9v1.2c0,3.3-2.7,5.9-5.9,5.9h-43.3
	c-3.3,0-5.9-2.7-5.9-5.9v-1.2C367.4,137.6,370.1,135,373.4,135z"/>
<path id="XMLID_296_" class="st20" d="M858.5,141.5H887c3.3,0,5.9,2.7,5.9,5.9v1.2c0,3.3-2.7,5.9-5.9,5.9h-28.5
	c-3.3,0-5.9-2.7-5.9-5.9v-1.2C852.6,144.1,855.3,141.5,858.5,141.5z"/>
<path id="XMLID_295_" class="st20" d="M869.4,135h43.3c3.3,0,5.9,2.7,5.9,5.9v1.2c0,3.3-2.7,5.9-5.9,5.9h-43.3
	c-3.3,0-5.9-2.7-5.9-5.9v-1.2C863.4,137.6,866.1,135,869.4,135z"/>
<path id="XMLID_297_" class="st20" d="M713.8,118.1h43.3c3.3,0,5.9,2.7,5.9,5.9v1.2c0,3.3-2.7,5.9-5.9,5.9h-43.3
	c-3.3,0-5.9-2.7-5.9-5.9V124C707.9,120.8,710.6,118.1,713.8,118.1z"/>
<path id="XMLID_305_" class="st20" d="M548,121.1h22.4c3.3,0,5.9,2.7,5.9,5.9v1.2c0,3.3-2.7,5.9-5.9,5.9H548c-3.3,0-5.9-2.7-5.9-5.9
	V127C542.1,123.8,544.8,121.1,548,121.1z"/>
<path id="XMLID_299_" class="st20" d="M510,114.6h43.3c3.3,0,5.9,2.7,5.9,5.9v1.2c0,3.3-2.7,5.9-5.9,5.9H510c-3.3,0-5.9-2.7-5.9-5.9
	v-1.2C504.1,117.3,506.8,114.6,510,114.6z"/>
<path id="XMLID_304_" class="st20" d="M259.7,163.3h41.5c3.3,0,5.9,2.7,5.9,5.9v1.2c0,3.3-2.7,5.9-5.9,5.9h-41.5
	c-3.3,0-5.9-2.7-5.9-5.9v-1.2C253.8,166,256.5,163.3,259.7,163.3z"/>
<path id="XMLID_303_" class="st20" d="M225.6,156.8h43.3c3.3,0,5.9,2.7,5.9,5.9v1.2c0,3.3-2.7,5.9-5.9,5.9h-43.3
	c-3.3,0-5.9-2.7-5.9-5.9v-1.2C219.7,159.5,222.3,156.8,225.6,156.8z"/>
<path id="XMLID_221_" class="st17" d="M776.8,341h28.5c3.3,0,5.9,2.7,5.9,5.9v1.2c0,3.3-2.7,5.9-5.9,5.9h-28.5
	c-3.3,0-5.9-2.7-5.9-5.9v-1.2C770.9,343.7,773.5,341,776.8,341z"/>
<rect id="XMLID_253_" x="630.8" y="122.2" class="st25" width="8.5" height="8.5"/>
<rect id="XMLID_259_" x="639.3" y="127.3" class="st20" width="5.7" height="1.7"/>
<rect id="XMLID_257_" x="639.3" y="123.9" class="st20" width="5.7" height="1.7"/>
<rect id="XMLID_260_" x="630.8" y="134.1" class="st20" width="14.1" height="1.7"/>
<rect id="XMLID_258_" x="630.8" y="130.7" class="st20" width="14.1" height="1.7"/>
<circle id="XMLID_256_" class="st20" cx="632.4" cy="123.6" r="0.5"/>
<circle id="XMLID_268_" class="st20" cx="634.2" cy="123.6" r="0.5"/>
<circle id="XMLID_267_" class="st20" cx="636" cy="123.6" r="0.5"/>
<circle id="XMLID_269_" class="st20" cx="637.8" cy="123.6" r="0.5"/>
<circle id="XMLID_274_" class="st20" cx="632.4" cy="125.5" r="0.5"/>
<circle id="XMLID_273_" class="st20" cx="634.2" cy="125.5" r="0.5"/>
<circle id="XMLID_272_" class="st20" cx="634.2" cy="125.5" r="0.5"/>
<circle id="XMLID_271_" class="st20" cx="636" cy="125.5" r="0.5"/>
<circle id="XMLID_270_" class="st20" cx="637.8" cy="125.5" r="0.5"/>
<circle id="XMLID_283_" class="st20" cx="632.4" cy="125.5" r="0.5"/>
<circle id="XMLID_282_" class="st20" cx="634.2" cy="125.5" r="0.5"/>
<circle id="XMLID_281_" class="st20" cx="636" cy="125.5" r="0.5"/>
<circle id="XMLID_280_" class="st20" cx="637.8" cy="125.5" r="0.5"/>
<circle id="XMLID_279_" class="st20" cx="632.4" cy="127.3" r="0.5"/>
<circle id="XMLID_278_" class="st20" cx="634.2" cy="127.3" r="0.5"/>
<circle id="XMLID_277_" class="st20" cx="634.2" cy="127.3" r="0.5"/>
<circle id="XMLID_276_" class="st20" cx="636" cy="127.3" r="0.5"/>
<circle id="XMLID_275_" class="st20" cx="637.8" cy="127.3" r="0.5"/>
<circle id="XMLID_292_" class="st20" cx="632.4" cy="127.3" r="0.5"/>
<circle id="XMLID_291_" class="st20" cx="634.2" cy="127.3" r="0.5"/>
<circle id="XMLID_290_" class="st20" cx="636" cy="127.3" r="0.5"/>
<circle id="XMLID_289_" class="st20" cx="637.8" cy="127.3" r="0.5"/>
<circle id="XMLID_288_" class="st20" cx="632.4" cy="129.1" r="0.5"/>
<circle id="XMLID_287_" class="st20" cx="634.2" cy="129.1" r="0.5"/>
<circle id="XMLID_286_" class="st20" cx="634.2" cy="129.1" r="0.5"/>
<circle id="XMLID_285_" class="st20" cx="636" cy="129.1" r="0.5"/>
<circle id="XMLID_284_" class="st20" cx="637.8" cy="129.1" r="0.5"/>
<polygon id="XMLID_126_" class="st26" points="310,126.6 305.5,120.8 313.5,125.8 319.7,123.3 315.1,128.3 318.6,131.1 312,129.3 
	307.8,131 "/>
<polygon id="XMLID_293_" class="st26" points="253.3,94.2 258,91.6 266.7,83.6 263.2,92.2 270.7,91.9 263.2,96.2 264,102.9 
	256.6,96.2 "/>
<g id="XMLID_358_">
	<path id="XMLID_360_" class="st27" d="M151.4,296.9v3.1c0,0.4,0.4,0.8,0.8,0.8h7.5c0.4,0,0.8-0.4,0.8-0.8v-3.1
		c0-0.4-0.4-0.8-0.8-0.8h-7.5C151.8,296.1,151.4,296.4,151.4,296.9z"/>
	<path id="XMLID_341_" class="st28" d="M152.5,293.3h-1.6c-0.4,0-0.8,0.4-0.8,0.8v70.9c0,0.4,0.4,0.8,0.8,0.8h1.6
		c0.4,0,0.8-0.4,0.8-0.8v-70.9C153.3,293.7,153,293.3,152.5,293.3z"/>
	<path id="XMLID_359_" class="st28" d="M150.4,294.1v4c0,0.4,0.4,0.8,0.8,0.8h9c0.4,0,0.8-0.4,0.8-0.8v-4c0-0.4-0.4-0.8-0.8-0.8h-9
		C150.8,293.3,150.4,293.6,150.4,294.1z"/>
</g>
<rect id="XMLID_361_" x="84.7" y="184.7" class="st10" width="20" height="9.1"/>
<g id="XMLID_373_">
	<line id="XMLID_565_" class="st9" x1="1110" y1="328.9" x2="1110" y2="353.8"/>
	<line id="XMLID_564_" class="st9" x1="1121" y1="328.9" x2="1121" y2="353.8"/>
	<line id="XMLID_563_" class="st9" x1="1132" y1="328.9" x2="1132" y2="353.8"/>
	<line id="XMLID_562_" class="st9" x1="1143" y1="328.9" x2="1143" y2="353.8"/>
	<line id="XMLID_561_" class="st9" x1="1154" y1="328.9" x2="1154" y2="353.8"/>
	<rect id="XMLID_528_" x="941.5" y="201.6" class="st10" width="226.7" height="152.3"/>
	<g id="XMLID_522_">
		<rect id="XMLID_527_" x="955.1" y="213.6" class="st11" width="19" height="30.2"/>
		<path id="XMLID_524_" class="st12" d="M973.6,214.1v29.2h-18v-29.2H973.6 M974.6,213.1h-20v31.2h20V213.1L974.6,213.1z"/>
	</g>
	<rect id="XMLID_521_" x="984.6" y="213.1" class="st13" width="20" height="31.2"/>
	<rect id="XMLID_520_" x="1014.6" y="213.1" class="st13" width="20" height="31.2"/>
	<rect id="XMLID_519_" x="1044.6" y="213.1" class="st13" width="20" height="31.2"/>
	<rect id="XMLID_518_" x="1074.6" y="213.1" class="st13" width="20" height="31.2"/>
	<rect id="XMLID_517_" x="1104.6" y="213.1" class="st13" width="20" height="31.2"/>
	<rect id="XMLID_516_" x="1134.6" y="213.1" class="st13" width="20" height="31.2"/>
	<g id="XMLID_510_">
		<rect id="XMLID_515_" x="955.1" y="244.7" class="st12" width="19" height="10.2"/>
		<path id="XMLID_512_" class="st12" d="M973.6,245.2v9.2h-18v-9.2H973.6 M974.6,244.2h-20v11.2h20V244.2L974.6,244.2z"/>
	</g>
	<rect id="XMLID_509_" x="984.6" y="244.2" class="st14" width="20" height="11.2"/>
	<rect id="XMLID_508_" x="1014.6" y="244.2" class="st14" width="20" height="11.2"/>
	<rect id="XMLID_507_" x="1044.6" y="244.2" class="st14" width="20" height="11.2"/>
	<rect id="XMLID_506_" x="1074.6" y="244.2" class="st14" width="20" height="11.2"/>
	<rect id="XMLID_505_" x="1104.6" y="244.2" class="st14" width="20" height="11.2"/>
	<rect id="XMLID_504_" x="1134.6" y="244.2" class="st14" width="20" height="11.2"/>
	<g id="XMLID_498_">
		<rect id="XMLID_503_" x="955.1" y="255.9" class="st11" width="19" height="30.2"/>
		<path id="XMLID_500_" class="st12" d="M973.6,256.4v29.2h-18v-29.2H973.6 M974.6,255.4h-20v31.2h20V255.4L974.6,255.4z"/>
	</g>
	<rect id="XMLID_497_" x="984.6" y="255.4" class="st13" width="20" height="31.2"/>
	<rect id="XMLID_496_" x="1014.6" y="255.4" class="st13" width="20" height="31.2"/>
	<rect id="XMLID_495_" x="1044.6" y="255.4" class="st13" width="20" height="31.2"/>
	<rect id="XMLID_494_" x="1074.6" y="255.4" class="st13" width="20" height="31.2"/>
	<rect id="XMLID_493_" x="1104.6" y="255.4" class="st13" width="20" height="31.2"/>
	<rect id="XMLID_492_" x="1134.6" y="255.4" class="st13" width="20" height="31.2"/>
	<g id="XMLID_486_">
		<rect id="XMLID_491_" x="955.1" y="287.1" class="st12" width="19" height="10.2"/>
		<path id="XMLID_488_" class="st12" d="M973.6,287.6v9.2h-18v-9.2H973.6 M974.6,286.6h-20v11.2h20V286.6L974.6,286.6z"/>
	</g>
	<rect id="XMLID_485_" x="984.6" y="286.6" class="st14" width="20" height="11.2"/>
	<rect id="XMLID_484_" x="1014.6" y="286.6" class="st14" width="20" height="11.2"/>
	<rect id="XMLID_483_" x="1044.6" y="286.6" class="st14" width="20" height="11.2"/>
	<rect id="XMLID_482_" x="1074.6" y="286.6" class="st14" width="20" height="11.2"/>
	<rect id="XMLID_481_" x="1104.6" y="286.6" class="st14" width="20" height="11.2"/>
	<rect id="XMLID_480_" x="1134.6" y="286.6" class="st14" width="20" height="11.2"/>
	<g id="XMLID_474_">
		<rect id="XMLID_479_" x="955.1" y="298.2" class="st11" width="19" height="30.2"/>
		<path id="XMLID_476_" class="st12" d="M973.6,298.7v29.2h-18v-29.2H973.6 M974.6,297.7h-20v31.2h20V297.7L974.6,297.7z"/>
	</g>
	<rect id="XMLID_473_" x="984.6" y="297.7" class="st13" width="20" height="31.2"/>
	<rect id="XMLID_472_" x="1014.6" y="297.7" class="st13" width="20" height="31.2"/>
	<rect id="XMLID_471_" x="1044.6" y="297.7" class="st13" width="20" height="31.2"/>
	<rect id="XMLID_470_" x="1074.6" y="297.7" class="st13" width="20" height="31.2"/>
	<rect id="XMLID_469_" x="1104.6" y="297.7" class="st13" width="20" height="31.2"/>
	<rect id="XMLID_468_" x="1134.6" y="297.7" class="st13" width="20" height="31.2"/>
	<g id="XMLID_462_">
		<rect id="XMLID_467_" x="955.1" y="329.4" class="st12" width="19" height="10.2"/>
		<path id="XMLID_464_" class="st12" d="M973.6,329.9v9.2h-18v-9.2H973.6 M974.6,328.9h-20v11.2h20V328.9L974.6,328.9z"/>
	</g>
	<rect id="XMLID_461_" x="984.6" y="328.9" class="st14" width="20" height="11.2"/>
	<rect id="XMLID_460_" x="1014.6" y="328.9" class="st14" width="20" height="11.2"/>
	<rect id="XMLID_459_" x="1044.6" y="328.9" class="st14" width="20" height="11.2"/>
	<rect id="XMLID_458_" x="1074.6" y="328.9" class="st14" width="20" height="11.2"/>
	<rect id="XMLID_457_" x="1104.6" y="328.9" class="st14" width="20" height="11.2"/>
	<rect id="XMLID_456_" x="1134.6" y="328.9" class="st14" width="20" height="11.2"/>
	<path id="XMLID_455_" class="st12" d="M1171.5,193.6H938.1c-2.2,0-4,1.8-4,4v0c0,2.2,1.8,4,4,4h233.3c2.2,0,4-1.8,4-4v0
		C1175.5,195.4,1173.7,193.6,1171.5,193.6z"/>
</g>
<path id="XMLID_374_" class="st12" d="M86.9,181.7h15.6c1.3,0,2.4,1.1,2.4,2.4l0,0c0,1.3-1.1,2.4-2.4,2.4H86.9
	c-1.3,0-2.4-1.1-2.4-2.4l0,0C84.5,182.7,85.6,181.7,86.9,181.7z"/>
<path id="XMLID_544_" class="st23" d="M373.4,309.7h-10.9h-2.8h-7.5h-3.4h-10.3v31.8h10.1v0h13.8v0h11.2V309.7z M359.7,310.7v29.8
	h-7.5v-29.8H359.7z"/>
<g id="XMLID_366_">
	<path id="XMLID_369_" class="st27" d="M355.6,296.9v3.1c0,0.4,0.4,0.8,0.8,0.8h7.5c0.4,0,0.8-0.4,0.8-0.8v-3.1
		c0-0.4-0.4-0.8-0.8-0.8h-7.5C356,296.1,355.6,296.4,355.6,296.9z"/>
	<path id="XMLID_368_" class="st28" d="M356.7,293.3h-1.6c-0.4,0-0.8,0.4-0.8,0.8v70.9c0,0.4,0.4,0.8,0.8,0.8h1.6
		c0.4,0,0.8-0.4,0.8-0.8v-70.9C357.5,293.7,357.2,293.3,356.7,293.3z"/>
	<path id="XMLID_367_" class="st28" d="M354.6,294.1v4c0,0.4,0.4,0.8,0.8,0.8h9c0.4,0,0.8-0.4,0.8-0.8v-4c0-0.4-0.4-0.8-0.8-0.8h-9
		C355,293.3,354.6,293.6,354.6,294.1z"/>
</g>
<g id="XMLID_385_">
	<path id="XMLID_432_" class="st20" d="M343.9,336.7c-0.2,0-0.4-0.2-0.4-0.4s0.2-0.4,0.4-0.4h1v-1.4h-1c-0.2,0-0.4-0.2-0.4-0.4
		s0.2-0.4,0.4-0.4h2.8c0.2,0,0.4,0.2,0.4,0.4s-0.2,0.4-0.4,0.4h-1.1v1.4h1.1c0.2,0,0.4,0.2,0.4,0.4s-0.2,0.4-0.4,0.4H343.9z"/>
	<path id="XMLID_434_" class="st20" d="M345.6,332.9h-1.7c-0.2,0-0.4-0.2-0.4-0.4s0.2-0.4,0.4-0.4h1.6c0.6,0,0.9-0.3,0.9-0.8
		c0-0.5-0.3-0.8-0.9-0.8h-1.7c-0.2,0-0.4-0.2-0.4-0.4s0.2-0.4,0.4-0.4h1.6c1.1,0,1.6,0.6,1.6,1.6
		C347.1,332.3,346.6,332.9,345.6,332.9z"/>
	<path id="XMLID_436_" class="st20" d="M346.7,329c-0.1,0.1-0.2,0.1-0.3,0.1c-0.2,0-0.4-0.2-0.4-0.4c0-0.1,0-0.2,0.1-0.2
		c0.2-0.3,0.3-0.6,0.3-0.9c0-0.3-0.1-0.5-0.3-0.5h0c-0.2,0-0.3,0.1-0.5,0.7c-0.2,0.7-0.4,1.2-1.1,1.2h0c-0.6,0-1.1-0.5-1.1-1.2
		c0-0.4,0.1-0.8,0.3-1.1c0-0.1,0.2-0.2,0.3-0.2c0.2,0,0.4,0.2,0.4,0.4c0,0.1,0,0.1-0.1,0.2c-0.2,0.3-0.2,0.5-0.2,0.7
		c0,0.3,0.1,0.5,0.3,0.5h0c0.2,0,0.3-0.2,0.5-0.8c0.2-0.7,0.4-1.1,1.1-1.1h0c0.7,0,1.1,0.5,1.1,1.3C347.1,328.2,347,328.6,346.7,329
		z"/>
	<path id="XMLID_439_" class="st20" d="M343.9,325.7c-0.2,0-0.4-0.2-0.4-0.4s0.2-0.4,0.4-0.4h1.2l-1.4-1.4c-0.1-0.1-0.2-0.2-0.2-0.3
		c0-0.2,0.2-0.4,0.4-0.4c0.1,0,0.2,0.1,0.3,0.1l0.9,1l1.4-1.1c0.1-0.1,0.2-0.1,0.3-0.1c0.2,0,0.4,0.2,0.4,0.4c0,0.2-0.1,0.2-0.2,0.3
		l-1.3,1l0.4,0.4h0.7c0.2,0,0.4,0.2,0.4,0.4s-0.2,0.4-0.4,0.4H343.9z"/>
	<path id="XMLID_442_" class="st20" d="M343.9,322.1c-0.2,0-0.4-0.2-0.4-0.4c0-0.2,0.2-0.4,0.4-0.4h2.8c0.2,0,0.4,0.2,0.4,0.4
		c0,0.2-0.2,0.4-0.4,0.4H343.9z"/>
	<path id="XMLID_445_" class="st20" d="M346.7,320.4h-2.8c-0.2,0-0.4-0.2-0.4-0.4v-2c0-0.2,0.2-0.3,0.3-0.3s0.3,0.2,0.3,0.3v1.6h0.7
		v-1.4c0-0.2,0.2-0.3,0.3-0.3s0.3,0.2,0.3,0.3v1.4h0.7V318c0-0.2,0.2-0.3,0.3-0.3s0.3,0.2,0.3,0.3v2
		C347.1,320.2,346.9,320.4,346.7,320.4z"/>
	<path id="XMLID_447_" class="st20" d="M346.7,317.1c-0.1,0.1-0.2,0.1-0.3,0.1c-0.2,0-0.4-0.2-0.4-0.4c0-0.1,0-0.2,0.1-0.2
		c0.2-0.3,0.3-0.6,0.3-0.9c0-0.3-0.1-0.5-0.3-0.5h0c-0.2,0-0.3,0.1-0.5,0.7c-0.2,0.7-0.4,1.2-1.1,1.2h0c-0.6,0-1.1-0.5-1.1-1.2
		c0-0.4,0.1-0.8,0.3-1.1c0-0.1,0.2-0.2,0.3-0.2c0.2,0,0.4,0.2,0.4,0.4c0,0.1,0,0.1-0.1,0.2c-0.2,0.3-0.2,0.5-0.2,0.7
		c0,0.3,0.1,0.5,0.3,0.5h0c0.2,0,0.3-0.2,0.5-0.8c0.2-0.7,0.4-1.1,1.1-1.1h0c0.7,0,1.1,0.5,1.1,1.3
		C347.1,316.2,347,316.7,346.7,317.1z"/>
</g>
<g id="XMLID_449_">
	<path id="XMLID_450_" class="st20" d="M366.9,314L366.9,314c0.9,0,1.7,0.7,1.7,1.7c0,0.5-0.1,0.8-0.3,1.1c-0.1,0.1-0.2,0.1-0.3,0.1
		c-0.2,0-0.3-0.2-0.3-0.3c0-0.1,0-0.2,0.1-0.2c0.1-0.2,0.2-0.4,0.2-0.7c0-0.5-0.4-0.9-1-0.9h0c-0.5,0-1,0.4-1,0.9
		c0,0.3,0.1,0.5,0.3,0.7c0,0.1,0.1,0.1,0.1,0.2c0,0.2-0.1,0.3-0.3,0.3c-0.1,0-0.2-0.1-0.3-0.1c-0.3-0.3-0.4-0.6-0.4-1.1
		C365.2,314.7,365.9,314,366.9,314z"/>
	<path id="XMLID_452_" class="st20" d="M368.1,317.5c0.2,0,0.4,0.2,0.4,0.4c0,0.2-0.2,0.4-0.4,0.4h-0.9v1.3h0.9
		c0.2,0,0.4,0.2,0.4,0.4s-0.2,0.4-0.4,0.4h-2.6c-0.2,0-0.4-0.2-0.4-0.4s0.2-0.4,0.4-0.4h1v-1.3h-1c-0.2,0-0.4-0.2-0.4-0.4
		c0-0.2,0.2-0.4,0.4-0.4H368.1z"/>
	<path id="XMLID_454_" class="st20" d="M365.6,321h2.5c0.2,0,0.4,0.2,0.4,0.4v1.8c0,0.2-0.1,0.3-0.3,0.3c-0.2,0-0.3-0.1-0.3-0.3
		v-1.4h-0.7v1.2c0,0.2-0.1,0.3-0.3,0.3c-0.2,0-0.3-0.1-0.3-0.3v-1.2h-0.7v1.5c0,0.2-0.1,0.3-0.3,0.3c-0.2,0-0.3-0.1-0.3-0.3v-1.8
		C365.3,321.1,365.4,321,365.6,321z"/>
	<path id="XMLID_530_" class="st20" d="M368.1,324c0.2,0,0.4,0.2,0.4,0.4v0.9c0,1-0.7,1.7-1.6,1.7h0c-0.9,0-1.6-0.7-1.6-1.7v-0.9
		c0-0.2,0.2-0.4,0.4-0.4H368.1z M365.9,325.3c0,0.6,0.4,1,1,1h0c0.6,0,1-0.4,1-1v-0.5h-1.9V325.3z"/>
	<path id="XMLID_533_" class="st20" d="M368.1,327.6c0.2,0,0.4,0.2,0.4,0.4v0.9c0,1-0.7,1.7-1.6,1.7h0c-0.9,0-1.6-0.7-1.6-1.7V328
		c0-0.2,0.2-0.4,0.4-0.4H368.1z M365.9,328.9c0,0.6,0.4,1,1,1h0c0.6,0,1-0.4,1-1v-0.5h-1.9V328.9z"/>
	<path id="XMLID_536_" class="st20" d="M365.7,330.9l2.5,1.1c0.2,0.1,0.3,0.2,0.3,0.4v0c0,0.2-0.1,0.3-0.3,0.4l-2.5,1.1
		c-0.1,0-0.1,0-0.1,0c-0.2,0-0.3-0.1-0.3-0.3c0-0.2,0.1-0.3,0.2-0.3l0.5-0.2v-1.4l-0.5-0.2c-0.1-0.1-0.2-0.2-0.2-0.3
		c0-0.2,0.1-0.3,0.3-0.3C365.6,330.8,365.7,330.9,365.7,330.9z M366.6,332.9l1.1-0.4l-1.1-0.4V332.9z"/>
	<path id="XMLID_539_" class="st20" d="M368.1,334.6c0.2,0,0.4,0.2,0.4,0.4v1.1c0,0.4-0.1,0.7-0.3,0.9c-0.2,0.2-0.4,0.3-0.7,0.3h0
		c-0.5,0-0.8-0.3-1-0.6l-0.6,0.5c-0.1,0.1-0.2,0.1-0.3,0.1c-0.2,0-0.3-0.2-0.3-0.3c0-0.2,0.1-0.3,0.2-0.3l0.9-0.7v-0.6h-0.7
		c-0.2,0-0.4-0.2-0.4-0.4s0.2-0.4,0.4-0.4H368.1z M366.9,336c0,0.3,0.2,0.5,0.5,0.5h0c0.3,0,0.5-0.2,0.5-0.6v-0.7h-0.9V336z"/>
</g>
<path id="XMLID_584_" class="st20" d="M904.4,309.7h-10.9h-2.8h-7.5h-3.4h-10.3v31.8h10.1v0h13.8v0h11.2V309.7z M890.6,310.7v29.8
	h-7.5v-29.8H890.6z"/>
<g id="XMLID_580_">
	<path id="XMLID_583_" class="st27" d="M886.6,296.9v3.1c0,0.4,0.4,0.8,0.8,0.8h7.5c0.4,0,0.8-0.4,0.8-0.8v-3.1
		c0-0.4-0.4-0.8-0.8-0.8h-7.5C886.9,296.1,886.6,296.4,886.6,296.9z"/>
	<path id="XMLID_582_" class="st28" d="M887.7,293.3h-1.6c-0.4,0-0.8,0.4-0.8,0.8v70.9c0,0.4,0.4,0.8,0.8,0.8h1.6
		c0.4,0,0.8-0.4,0.8-0.8v-70.9C888.5,293.7,888.1,293.3,887.7,293.3z"/>
	<path id="XMLID_581_" class="st28" d="M885.6,294.1v4c0,0.4,0.4,0.8,0.8,0.8h9c0.4,0,0.8-0.4,0.8-0.8v-4c0-0.4-0.4-0.8-0.8-0.8h-9
		C885.9,293.3,885.6,293.6,885.6,294.1z"/>
</g>
<g id="XMLID_560_">
	<path id="XMLID_578_" class="st18" d="M874.8,336.7c-0.2,0-0.4-0.2-0.4-0.4s0.2-0.4,0.4-0.4h1v-1.4h-1c-0.2,0-0.4-0.2-0.4-0.4
		s0.2-0.4,0.4-0.4h2.8c0.2,0,0.4,0.2,0.4,0.4s-0.2,0.4-0.4,0.4h-1.1v1.4h1.1c0.2,0,0.4,0.2,0.4,0.4s-0.2,0.4-0.4,0.4H874.8z"/>
	<path id="XMLID_576_" class="st18" d="M876.5,332.9h-1.7c-0.2,0-0.4-0.2-0.4-0.4s0.2-0.4,0.4-0.4h1.6c0.6,0,0.9-0.3,0.9-0.8
		c0-0.5-0.3-0.8-0.9-0.8h-1.7c-0.2,0-0.4-0.2-0.4-0.4s0.2-0.4,0.4-0.4h1.6c1.1,0,1.6,0.6,1.6,1.6
		C878.1,332.3,877.5,332.9,876.5,332.9z"/>
	<path id="XMLID_574_" class="st18" d="M877.6,329c-0.1,0.1-0.2,0.1-0.3,0.1c-0.2,0-0.4-0.2-0.4-0.4c0-0.1,0-0.2,0.1-0.2
		c0.2-0.3,0.3-0.6,0.3-0.9c0-0.3-0.1-0.5-0.3-0.5h0c-0.2,0-0.3,0.1-0.5,0.7c-0.2,0.7-0.4,1.2-1.1,1.2h0c-0.6,0-1.1-0.5-1.1-1.2
		c0-0.4,0.1-0.8,0.3-1.1c0-0.1,0.2-0.2,0.3-0.2c0.2,0,0.4,0.2,0.4,0.4c0,0.1,0,0.1-0.1,0.2c-0.2,0.3-0.2,0.5-0.2,0.7
		c0,0.3,0.1,0.5,0.3,0.5h0c0.2,0,0.3-0.2,0.5-0.8c0.2-0.7,0.4-1.1,1.1-1.1h0c0.7,0,1.1,0.5,1.1,1.3
		C878.1,328.2,877.9,328.6,877.6,329z"/>
	<path id="XMLID_572_" class="st18" d="M874.8,325.7c-0.2,0-0.4-0.2-0.4-0.4s0.2-0.4,0.4-0.4h1.2l-1.4-1.4c-0.1-0.1-0.2-0.2-0.2-0.3
		c0-0.2,0.2-0.4,0.4-0.4c0.1,0,0.2,0.1,0.3,0.1l0.9,1l1.4-1.1c0.1-0.1,0.2-0.1,0.3-0.1c0.2,0,0.4,0.2,0.4,0.4c0,0.2-0.1,0.2-0.2,0.3
		l-1.3,1l0.4,0.4h0.7c0.2,0,0.4,0.2,0.4,0.4s-0.2,0.4-0.4,0.4H874.8z"/>
	<path id="XMLID_570_" class="st18" d="M874.8,322.1c-0.2,0-0.4-0.2-0.4-0.4c0-0.2,0.2-0.4,0.4-0.4h2.8c0.2,0,0.4,0.2,0.4,0.4
		c0,0.2-0.2,0.4-0.4,0.4H874.8z"/>
	<path id="XMLID_568_" class="st18" d="M877.6,320.4h-2.8c-0.2,0-0.4-0.2-0.4-0.4v-2c0-0.2,0.2-0.3,0.3-0.3s0.3,0.2,0.3,0.3v1.6h0.7
		v-1.4c0-0.2,0.2-0.3,0.3-0.3s0.3,0.2,0.3,0.3v1.4h0.7V318c0-0.2,0.2-0.3,0.3-0.3s0.3,0.2,0.3,0.3v2
		C878,320.2,877.8,320.4,877.6,320.4z"/>
	<path id="XMLID_566_" class="st18" d="M877.6,317.1c-0.1,0.1-0.2,0.1-0.3,0.1c-0.2,0-0.4-0.2-0.4-0.4c0-0.1,0-0.2,0.1-0.2
		c0.2-0.3,0.3-0.6,0.3-0.9c0-0.3-0.1-0.5-0.3-0.5h0c-0.2,0-0.3,0.1-0.5,0.7c-0.2,0.7-0.4,1.2-1.1,1.2h0c-0.6,0-1.1-0.5-1.1-1.2
		c0-0.4,0.1-0.8,0.3-1.1c0-0.1,0.2-0.2,0.3-0.2c0.2,0,0.4,0.2,0.4,0.4c0,0.1,0,0.1-0.1,0.2c-0.2,0.3-0.2,0.5-0.2,0.7
		c0,0.3,0.1,0.5,0.3,0.5h0c0.2,0,0.3-0.2,0.5-0.8c0.2-0.7,0.4-1.1,1.1-1.1h0c0.7,0,1.1,0.5,1.1,1.3
		C878.1,316.2,877.9,316.7,877.6,317.1z"/>
</g>
<g id="XMLID_363_">
	<path id="XMLID_558_" class="st18" d="M897.8,314L897.8,314c0.9,0,1.7,0.7,1.7,1.7c0,0.5-0.1,0.8-0.3,1.1c-0.1,0.1-0.2,0.1-0.3,0.1
		c-0.2,0-0.3-0.2-0.3-0.3c0-0.1,0-0.2,0.1-0.2c0.1-0.2,0.2-0.4,0.2-0.7c0-0.5-0.4-0.9-1-0.9h0c-0.5,0-1,0.4-1,0.9
		c0,0.3,0.1,0.5,0.3,0.7c0,0.1,0.1,0.1,0.1,0.2c0,0.2-0.1,0.3-0.3,0.3c-0.1,0-0.2-0.1-0.3-0.1c-0.3-0.3-0.4-0.6-0.4-1.1
		C896.1,314.7,896.9,314,897.8,314z"/>
	<path id="XMLID_556_" class="st18" d="M899.1,317.5c0.2,0,0.4,0.2,0.4,0.4c0,0.2-0.2,0.4-0.4,0.4h-0.9v1.3h0.9
		c0.2,0,0.4,0.2,0.4,0.4s-0.2,0.4-0.4,0.4h-2.6c-0.2,0-0.4-0.2-0.4-0.4s0.2-0.4,0.4-0.4h1v-1.3h-1c-0.2,0-0.4-0.2-0.4-0.4
		c0-0.2,0.2-0.4,0.4-0.4H899.1z"/>
	<path id="XMLID_554_" class="st18" d="M896.6,321h2.5c0.2,0,0.4,0.2,0.4,0.4v1.8c0,0.2-0.1,0.3-0.3,0.3c-0.2,0-0.3-0.1-0.3-0.3
		v-1.4h-0.7v1.2c0,0.2-0.1,0.3-0.3,0.3c-0.2,0-0.3-0.1-0.3-0.3v-1.2h-0.7v1.5c0,0.2-0.1,0.3-0.3,0.3c-0.2,0-0.3-0.1-0.3-0.3v-1.8
		C896.2,321.1,896.4,321,896.6,321z"/>
	<path id="XMLID_551_" class="st18" d="M899.1,324c0.2,0,0.4,0.2,0.4,0.4v0.9c0,1-0.7,1.7-1.6,1.7h0c-0.9,0-1.6-0.7-1.6-1.7v-0.9
		c0-0.2,0.2-0.4,0.4-0.4H899.1z M896.8,325.3c0,0.6,0.4,1,1,1h0c0.6,0,1-0.4,1-1v-0.5h-1.9V325.3z"/>
	<path id="XMLID_548_" class="st18" d="M899.1,327.6c0.2,0,0.4,0.2,0.4,0.4v0.9c0,1-0.7,1.7-1.6,1.7h0c-0.9,0-1.6-0.7-1.6-1.7V328
		c0-0.2,0.2-0.4,0.4-0.4H899.1z M896.8,328.9c0,0.6,0.4,1,1,1h0c0.6,0,1-0.4,1-1v-0.5h-1.9V328.9z"/>
	<path id="XMLID_545_" class="st18" d="M896.7,330.9l2.5,1.1c0.2,0.1,0.3,0.2,0.3,0.4v0c0,0.2-0.1,0.3-0.3,0.4l-2.5,1.1
		c-0.1,0-0.1,0-0.1,0c-0.2,0-0.3-0.1-0.3-0.3c0-0.2,0.1-0.3,0.2-0.3l0.5-0.2v-1.4l-0.5-0.2c-0.1-0.1-0.2-0.2-0.2-0.3
		c0-0.2,0.1-0.3,0.3-0.3C896.6,330.8,896.6,330.9,896.7,330.9z M897.5,332.9l1.1-0.4l-1.1-0.4V332.9z"/>
	<path id="XMLID_364_" class="st18" d="M899.1,334.6c0.2,0,0.4,0.2,0.4,0.4v1.1c0,0.4-0.1,0.7-0.3,0.9c-0.2,0.2-0.4,0.3-0.7,0.3h0
		c-0.5,0-0.8-0.3-1-0.6l-0.6,0.5c-0.1,0.1-0.2,0.1-0.3,0.1c-0.2,0-0.3-0.2-0.3-0.3c0-0.2,0.1-0.3,0.2-0.3l0.9-0.7v-0.6h-0.7
		c-0.2,0-0.4-0.2-0.4-0.4s0.2-0.4,0.4-0.4H899.1z M897.9,336c0,0.3,0.2,0.5,0.5,0.5h0c0.3,0,0.5-0.2,0.5-0.6v-0.7h-0.9V336z"/>
</g>
</svg>
