<?xml version="1.0" encoding="utf-8"?>
<!-- Generator: Adobe Illustrator 19.0.0, SVG Export Plug-In . SVG Version: 6.00 Build 0)  -->
<svg version="1.1" id="Layer_1" xmlns="http://www.w3.org/2000/svg" xmlns:xlink="http://www.w3.org/1999/xlink" x="0px" y="0px"
	 viewBox="0 0 500 500" style="enable-background:new 0 0 500 500;" xml:space="preserve">
<style type="text/css">
	.st0{fill:#E6E7E8;}
</style>
<g id="XMLID_4_">
	<path id="XMLID_17_" class="st0" d="M383.3,58c32.3,0,58.7,26.3,58.7,58.7v2.8H58v-2.8C58,84.3,84.3,58,116.7,58H383.3 M383.3,46
		H116.7C77.6,46,46,77.6,46,116.7v14.8h408v-14.8C454,77.6,422.4,46,383.3,46L383.3,46z"/>
</g>
<g id="XMLID_10_">
	<path id="XMLID_31_" class="st0" d="M442,160.6v222.7c0,32.3-26.3,58.7-58.7,58.7H116.7C84.3,442,58,415.7,58,383.3V160.6H442
		 M243.6,191.9c-0.1,0-0.2,0.1-0.2,0.1c-1.6,0.5-3.1,1.3-4.6,2.2c-0.1,0.1-0.2,0.1-0.3,0.2c-1.1,0.8-2.2,1.6-3.1,2.6l-55.6,55.6
		c-8,8-8,21.1,0,29.1c3.9,3.9,9,6,14.5,6c5.5,0,10.7-2.1,14.5-6l20.6-20.6v121.7c0,11.3,9.2,20.6,20.6,20.6
		c11.3,0,20.6-9.2,20.6-20.6V261.1l20.6,20.6c3.9,3.9,9,6,14.5,6s10.7-2.1,14.5-6c8-8,8-21.1,0-29.1l-55.6-55.6
		c-0.9-0.9-1.8-1.6-2.8-2.3c-0.1,0-0.1-0.1-0.2-0.1c0,0,0,0,0,0c-1.6-1.1-3.3-2-5.1-2.6c-0.1,0-0.2-0.1-0.2-0.1c-2-0.6-4.1-1-6.2-1
		C247.8,190.8,245.7,191.2,243.6,191.9L243.6,191.9 M454,148.6H46v234.7c0,39,31.6,70.7,70.7,70.7h266.7c39,0,70.7-31.6,70.7-70.7
		V148.6L454,148.6z M194.3,275.7c-2.2,0-4.4-0.8-6.1-2.5c-3.3-3.3-3.3-8.8,0-12.1l55.6-55.6c0.4-0.4,0.8-0.8,1.3-1.1c0,0,0,0,0,0
		c0.6-0.4,1.3-0.8,2.1-1c0,0,0,0,0,0c0.9-0.3,1.8-0.4,2.7-0.4c0.9,0,1.8,0.1,2.6,0.4c0,0,0,0,0,0c0,0,0,0,0,0
		c0.8,0.3,1.5,0.6,2.2,1.1c0,0,0,0,0,0c0.4,0.3,0.9,0.7,1.2,1l55.6,55.6c3.3,3.3,3.3,8.8,0,12.1c-1.7,1.7-3.9,2.5-6.1,2.5
		s-4.4-0.8-6.1-2.5l-41.1-41.1v150.6c0,4.7-3.8,8.6-8.6,8.6c-4.7,0-8.6-3.8-8.6-8.6V232.1l-41.1,41.1
		C198.7,274.8,196.5,275.7,194.3,275.7L194.3,275.7z"/>
</g>
</svg>
