<?xml version="1.0" encoding="utf-8"?>
<!-- Generator: Adobe Illustrator 19.0.0, SVG Export Plug-In . SVG Version: 6.00 Build 0)  -->
<svg version="1.1" id="Layer_1" xmlns="http://www.w3.org/2000/svg" xmlns:xlink="http://www.w3.org/1999/xlink" x="0px" y="0px"
	 viewBox="0 0 500 500" style="enable-background:new 0 0 500 500;" xml:space="preserve">
<style type="text/css">
	.st0{fill:#E6E7E8;}
</style>
<g id="XMLID_1_">
	<path id="XMLID_4_" class="st0" d="M454,131.5v-14.8c0-39-31.6-70.7-70.7-70.7H116.7C77.6,46,46,77.6,46,116.7v14.8H454z"/>
	<path id="XMLID_10_" class="st0" d="M46,148.6v234.7c0,39,31.6,70.7,70.7,70.7h266.7c39,0,70.7-31.6,70.7-70.7V148.6H46z
		 M311.7,273.1c-3.3,3.3-8.8,3.3-12.1,0l-41.1-41.1v150.6c0,4.7-3.8,8.6-8.6,8.6s-8.6-3.8-8.6-8.6V232.1l-41.1,41.1
		c-3.3,3.3-8.8,3.3-12.1,0s-3.3-8.8,0-12.1l55.6-55.6c0.4-0.4,0.8-0.8,1.3-1.1c0,0,0,0,0,0c0.6-0.4,1.3-0.8,2.1-1c0,0,0,0,0,0
		c0.9-0.3,1.8-0.4,2.7-0.4c0.9,0,1.8,0.1,2.6,0.4c0,0,0,0,0,0c0.8,0.3,1.5,0.6,2.2,1.1c0,0,0,0,0,0c0.4,0.3,0.9,0.7,1.2,1l55.6,55.6
		C315.1,264.4,315.1,269.8,311.7,273.1z"/>
</g>
</svg>
