<?xml version="1.0" encoding="utf-8"?>
<!-- Generator: Adobe Illustrator 19.0.0, SVG Export Plug-In . SVG Version: 6.00 Build 0)  -->
<svg version="1.1" id="Layer_1" xmlns="http://www.w3.org/2000/svg" xmlns:xlink="http://www.w3.org/1999/xlink" x="0px" y="0px"
	 viewBox="0 0 500 500" style="enable-background:new 0 0 500 500;" xml:space="preserve">
<style type="text/css">
	.st0{fill:#F4B333;}
	.st1{fill:#F6C531;}
	.st2{fill:#F5BE32;}
	.st3{fill:#F9D330;}
	.st4{fill:#F2AB33;}
	.st5{fill:#F7C731;}
</style>
<polygon id="XMLID_9_" class="st0" points="226.7,292.8 192.1,364.8 331.6,447.8 240.3,286.2 "/>
<polygon id="XMLID_1_" class="st0" points="136.3,224.6 56.7,287.3 240.3,287.6 193.5,207.3 "/>
<polyline id="XMLID_4_" class="st1" points="148.1,130.7 194.2,209.2 56.7,288 "/>
<polygon id="XMLID_10_" class="st2" points="148.1,130.7 194,209.5 330.8,129.8 284.5,51.9 "/>
<polyline id="XMLID_6_" class="st3" points="330.8,129.8 286.1,50.3 148.3,130.7 "/>
<polygon id="XMLID_8_" class="st0" points="302,160.2 240.3,287.6 330.8,287.6 330.8,129.8 "/>
<polyline id="XMLID_5_" class="st4" points="240.3,287.6 194,209.5 330.8,129.8 "/>
<polyline id="XMLID_7_" class="st4" points="240.3,287.6 330.8,287.6 331.6,447 "/>
<polyline id="XMLID_3_" class="st1" points="56.7,287.1 195,366.5 240.3,287.6 "/>
<path id="XMLID_2_" class="st5" d="M330.8,287.6l0-156.9l0-0.9l139.8,79.3l-45.3,78.5C425.2,287.6,333,287.6,330.8,287.6z"/>
</svg>
